<svg width="1111" height="307" viewBox="0 0 1111 307" fill="none" xmlns="http://www.w3.org/2000/svg">
<path d="M89.3949 223.023L14.783 259.203C14.7001 259.244 14.6304 259.3 14.5738 259.373C14.5293 259.43 14.493 259.465 14.4647 259.479C9.70172 261.666 4.92866 263.864 0.145494 266.075C0.129794 266.082 0.112566 266.085 0.0953851 266.084C0.0782042 266.083 0.0616219 266.077 0.0471491 266.068C0.0326763 266.058 0.0207752 266.045 0.0125389 266.03C0.00430257 266.015 -8.16441e-06 265.998 1.16087e-08 265.981V0.151558C1.16087e-08 0.0505193 0.0505193 0 0.151558 0H323.024C323.121 0 323.17 0.0495106 323.17 0.148528V301.533C323.17 301.653 323.116 301.686 323.009 301.633C308.692 294.405 294.35 287.154 279.982 279.879C279.03 279.397 278.045 278.706 277.099 278.224C268.772 273.986 260.426 269.785 252.062 265.62C242.508 260.861 233.032 255.942 223.521 251.107C221.585 250.123 219.711 249.034 217.901 247.84C217.41 247.515 217.64 247.245 217.595 246.83C216.796 239.456 216.057 232.078 215.376 224.694C215.368 224.599 215.298 224.521 215.167 224.46L193.579 214.491C193.524 214.466 193.481 214.422 193.456 214.367C193.431 214.313 193.426 214.251 193.442 214.194L195.561 206.746C195.596 206.631 195.672 206.574 195.792 206.576C202.765 206.591 209.737 206.588 216.707 206.567C219.232 206.559 220.966 206.391 221.908 206.061C224.016 205.328 225.316 203.827 225.809 201.56C225.999 200.693 226.011 199.294 225.845 197.362C225.298 190.903 225.023 184.434 225.021 177.953C225.021 177.914 225.029 177.876 225.046 177.841C225.062 177.806 225.086 177.775 225.115 177.75L227.303 175.889C227.388 175.817 227.455 175.727 227.5 175.626C227.545 175.525 227.567 175.415 227.564 175.304L227.188 158.651C227.187 158.627 227.191 158.603 227.2 158.58C227.209 158.558 227.222 158.538 227.238 158.52C227.255 158.503 227.275 158.489 227.297 158.48C227.319 158.471 227.343 158.466 227.367 158.466L241.814 158.423C241.846 158.423 241.878 158.415 241.906 158.4C241.935 158.384 241.959 158.363 241.978 158.336C241.996 158.309 242.007 158.279 242.011 158.247C242.015 158.215 242.01 158.183 241.998 158.154L228.152 122.013C228.139 121.977 228.135 121.939 228.14 121.901C228.146 121.863 228.161 121.828 228.183 121.797C228.206 121.767 228.237 121.742 228.271 121.727C228.306 121.711 228.344 121.704 228.383 121.707C228.686 121.733 229.042 121.723 229.453 121.677C247.855 119.561 267.639 115.363 285.214 107.609C291.143 104.992 296.643 101.669 301.715 97.6396C301.725 97.6336 301.805 97.58 301.955 97.479C302.167 97.3375 302.199 97.1647 302.052 96.9606C302.019 96.9156 301.978 96.8776 301.931 96.849C301.883 96.8204 301.831 96.8016 301.776 96.7939C296.85 96.1422 291.852 95.0541 287.154 94.3569C281.265 93.4799 275.381 92.5726 269.5 91.6349C262.992 90.5983 256.43 89.8344 249.889 89.0342C244.051 88.3158 237.431 87.2185 232.375 86.7335C221.493 85.6908 212.182 84.8441 204.442 84.1934C189.935 82.9749 174.831 83.078 160.415 83.6084C155.089 83.8024 149.63 84.2177 144.141 84.8512C135.492 85.8474 129.145 86.6699 125.102 87.3186C121.717 87.8621 116.793 88.8503 110.328 90.283C108.263 90.7417 106.299 91.2146 104.435 91.7016C95.8775 93.9406 87.4085 96.4747 79.0283 99.3037C66.5157 103.526 54.4275 109.313 43.8457 116.839C39.7395 119.757 36.2668 123.028 33.4276 126.651C31.8716 128.637 30.6511 131.001 29.766 133.741C24.7433 149.278 46.4555 154.847 56.6796 156.838C65.8317 158.62 75.0696 159.677 84.3935 160.009C90.476 160.223 96.5595 160.363 102.644 160.43C102.745 160.43 102.807 160.48 102.829 160.579C103.494 163.539 104.238 166.469 105.063 169.369C105.645 171.412 106.145 174.34 106.83 176.832C108.121 181.526 109.242 186.263 110.192 191.042C110.212 191.145 110.173 191.219 110.076 191.263C106.781 192.799 103.519 194.358 100.292 195.94C99.8655 196.148 99.6048 196.384 99.5099 196.646C97.089 203.339 94.6873 210.039 92.3048 216.746C92.0441 217.479 91.6369 218.406 91.0832 219.525C90.5376 220.626 90.1769 221.814 89.5586 222.869C89.5211 222.936 89.464 222.99 89.3949 223.023ZM140.167 31.815C126.424 36.3709 112.801 41.6754 99.8827 48.2348C99.4664 48.445 99.2441 48.7895 99.2158 49.2684C98.5914 59.8492 98.0226 70.4421 97.5093 81.0471C97.5083 81.073 97.5134 81.0988 97.5243 81.1223C97.5352 81.1459 97.5515 81.1665 97.572 81.1825C97.5924 81.1984 97.6163 81.2094 97.6418 81.2143C97.6673 81.2192 97.6935 81.218 97.7184 81.2108C99.0915 80.7894 100.907 80.1802 101.804 79.9225C108.934 77.8896 116.135 76.1609 123.407 74.7362C128.145 73.8087 133.201 73.1297 138.096 72.381C148.311 70.8169 158.802 70.238 169.608 70.0167C183.291 69.7338 196.549 70.1248 209.383 71.1898C215.327 71.6808 221.344 72.6477 227.2 73.4662C227.621 73.5248 227.767 73.352 227.64 72.9478C225.631 66.5925 223.633 60.2695 221.644 53.9788C221.109 52.2895 220.521 50.3576 219.88 48.1833C217.89 41.4177 215.783 34.6876 213.56 27.9927C213.451 27.6634 213.22 27.4451 212.866 27.338C204.65 24.8666 196.411 22.471 188.15 20.1511C187.083 19.8511 184.546 19.0023 183.524 19.263C167.562 23.3389 153.11 27.5229 140.167 31.815Z" fill="white"/>
<path d="M144.16 181.99C144.15 181.986 144.139 181.985 144.13 181.989C144.12 181.992 144.111 181.999 144.106 182.007C144.101 182.016 144.099 182.027 144.101 182.037C144.103 182.047 144.109 182.056 144.117 182.063C146.981 185.033 149.739 188.088 152.392 191.226C153.928 193.044 155.256 194.567 156.375 195.794C165.149 205.411 173.764 215.174 182.219 225.084C182.229 225.094 182.235 225.106 182.236 225.12C182.238 225.134 182.235 225.148 182.227 225.16C182.22 225.171 182.209 225.18 182.196 225.184C182.182 225.189 182.168 225.189 182.155 225.184C173.664 222.708 165.186 220.18 156.721 217.6C149.243 215.317 141.877 212.635 134.593 209.789C131.063 208.408 126.861 206.557 121.987 204.236C121.677 204.088 121.436 203.948 121.262 203.814C121.169 203.743 121.141 203.653 121.177 203.541C122.078 200.816 123.357 198.185 124.442 195.739C129.573 184.15 134.792 172.549 140.101 160.935C140.123 160.887 140.135 160.834 140.137 160.78C140.138 160.727 140.129 160.673 140.109 160.623C140.089 160.573 140.059 160.528 140.021 160.49C139.984 160.452 139.938 160.422 139.889 160.402L126.664 155.052C126.62 155.032 126.583 155.001 126.558 154.961C126.04 154.143 125.471 153.112 124.851 151.869C120.917 143.97 118.304 138.704 117.013 136.071C116.614 135.259 116.206 134.293 115.788 133.173C115.752 133.078 115.76 132.986 115.812 132.897C117.857 129.377 119.751 125.785 121.493 122.121C121.624 121.845 121.788 121.59 121.984 121.358C122.05 121.281 122.132 121.257 122.229 121.285C124.915 122.073 127.65 122.606 130.434 122.885C130.51 122.893 130.582 122.918 130.645 122.959C130.708 123 130.761 123.056 130.798 123.122C134.757 130.033 138.046 137.359 141.701 144.44C141.92 144.855 142.395 145.24 142.802 145.455C146.995 147.682 151.235 149.898 155.523 152.103C155.555 152.119 155.591 152.126 155.627 152.124C155.663 152.123 155.697 152.111 155.727 152.092C155.757 152.073 155.781 152.046 155.797 152.014C155.813 151.982 155.82 151.947 155.817 151.912L154.769 133.485C154.766 133.443 154.775 133.401 154.794 133.363C154.813 133.325 154.841 133.292 154.876 133.268C154.911 133.245 154.952 133.23 154.994 133.227C155.036 133.223 155.079 133.231 155.117 133.249L183.404 146.701C183.442 146.719 183.474 146.746 183.497 146.781C183.521 146.815 183.535 146.856 183.537 146.898C183.831 151.405 184.289 155.937 184.477 160.423C184.764 167.332 185.17 174.234 185.696 181.129C185.999 185.109 186.08 188.78 186.165 192.614C186.169 192.723 186.118 192.767 186.011 192.744C181.381 191.78 176.786 190.698 172.225 189.498C162.849 187.031 153.494 184.528 144.16 181.99Z" fill="white"/>
<path d="M137.408 239.086C137.03 238.971 136.992 239.041 137.293 239.298C155.119 254.533 173.57 268.967 192.023 283.577C192.29 283.787 192.497 283.739 192.645 283.432C193.599 281.465 194.685 279.412 195.57 277.515C200.185 267.652 204.623 257.775 208.883 247.885C209.071 247.447 209.105 247.459 208.986 247.922C208.681 249.102 208.398 250.405 208.137 251.832C207.141 257.292 206.186 262.759 205.272 268.234C202.911 282.413 199.253 294.126 195.597 306.893C195.565 307.01 195.503 307.028 195.412 306.947C185.815 298.383 176.309 289.685 166.892 280.852C165.265 279.327 163.803 277.931 162.506 276.666C144.256 258.877 127.435 239.818 112.043 219.49C109.562 216.214 107.193 212.909 104.938 209.575C104.736 209.276 104.786 209.225 105.087 209.423C105.824 209.91 106.674 210.394 107.636 210.875C113.072 213.583 118.495 216.314 123.907 219.068C135.901 225.167 148.375 230.453 161.202 234.527C165.232 235.806 169.262 237.083 173.294 238.358C174.237 238.658 175.039 238.892 175.697 239.062C176.195 239.189 176.72 239.201 177.274 239.098C184.545 237.734 191.911 236.437 199.05 234.494C199.081 234.485 199.115 234.486 199.146 234.497C199.177 234.507 199.205 234.526 199.225 234.552C199.246 234.577 199.259 234.609 199.262 234.641C199.265 234.674 199.259 234.707 199.244 234.736C195.994 240.802 191.887 247.306 188.413 253.726C188.394 253.763 188.363 253.791 188.325 253.807C188.287 253.823 188.244 253.826 188.204 253.814C180.478 251.565 172.839 249.289 165.152 247.164C155.786 244.573 146.538 241.881 137.408 239.086Z" fill="white"/>
<path d="M1049.7 224.5C1030 224.5 1014.97 218.736 1004.61 207.206C994.247 195.531 989.066 179.843 989.066 160.141C989.066 147.152 991.256 135.915 995.634 126.429C1000.16 116.796 1006.87 109.354 1015.77 104.1C1024.82 98.6999 1036.13 96 1049.7 96C1069.41 96 1084.37 101.838 1094.58 113.513C1104.94 125.042 1110.12 140.585 1110.12 160.141C1110.12 172.838 1107.79 184.075 1103.12 193.853C1098.59 203.485 1091.81 211.001 1082.76 216.401C1073.86 221.801 1062.84 224.5 1049.7 224.5ZM1049.49 206.988C1063.64 206.988 1074.3 202.609 1081.45 193.853C1088.6 185.097 1092.17 173.859 1092.17 160.141C1092.17 146.422 1088.6 135.185 1081.45 126.429C1074.44 117.526 1063.79 113.075 1049.49 113.075C1035.48 113.075 1024.82 117.307 1017.52 125.772C1010.37 134.236 1006.8 145.693 1006.8 160.141C1006.8 169.189 1008.33 177.289 1011.4 184.44C1014.46 191.445 1019.13 196.991 1025.41 201.077C1031.83 205.017 1039.85 206.988 1049.49 206.988Z" fill="white"/>
<path d="M925.869 223.625C914.485 223.625 904.124 221.29 894.784 216.62C885.589 211.804 878.292 204.725 872.892 195.385C867.639 185.899 865.012 174.151 865.012 160.141C865.158 146.276 867.858 134.601 873.111 125.115C878.365 115.483 885.589 108.259 894.784 103.443C904.124 98.481 914.777 96 926.744 96C942.652 96 955.495 100.232 965.273 108.697C975.051 117.161 981.107 128.253 983.442 141.971H964.616C963.448 134.966 960.894 129.347 956.954 125.115C953.16 120.883 948.563 117.818 943.163 115.921C937.909 114.024 932.436 113.075 926.744 113.075C912.88 113.075 902.154 117.088 894.565 125.115C886.976 132.996 883.181 144.306 883.181 159.046C883.181 174.516 886.903 186.337 894.346 194.51C901.789 202.536 912.369 206.55 926.088 206.55C935.574 206.55 944.038 204.288 951.481 199.764C958.924 195.093 963.521 187.578 965.273 177.216H984.318C981.837 190.934 975.707 202.099 965.929 210.709C956.151 219.32 942.798 223.625 925.869 223.625Z" fill="white"/>
<path d="M835.517 98.1875H854.124V221.434H819.755L767.873 106.287H767.436V221.434H748.828V98.1875H781.008L835.079 213.334H835.517V98.1875Z" fill="white"/>
<path d="M675.197 224.5C655.495 224.5 640.463 218.736 630.101 207.206C619.739 195.531 614.559 179.843 614.559 160.141C614.559 147.152 616.748 135.915 621.126 126.429C625.65 116.796 632.363 109.354 641.266 104.1C650.314 98.6999 661.624 96 675.197 96C694.899 96 709.858 101.838 720.073 113.513C730.435 125.042 735.616 140.585 735.616 160.141C735.616 172.838 733.281 184.075 728.611 193.853C724.087 203.485 717.301 211.001 708.252 216.401C699.35 221.801 688.331 224.5 675.197 224.5ZM674.978 206.988C689.134 206.988 699.788 202.609 706.939 193.853C714.09 185.097 717.665 173.859 717.665 160.141C717.665 146.422 714.09 135.185 706.939 126.429C699.934 117.526 689.28 113.075 674.978 113.075C660.968 113.075 650.314 117.307 643.017 125.772C635.866 134.236 632.29 145.693 632.29 160.141C632.29 169.189 633.823 177.289 636.887 184.44C639.952 191.445 644.622 196.991 650.898 201.077C657.319 205.017 665.346 206.988 674.978 206.988Z" fill="white"/>
<path d="M510.793 221.434V98.1875H553.918C569.68 98.1875 581.866 100.814 590.476 106.068C599.233 111.176 603.611 120.443 603.611 133.87C603.611 143.21 601.203 151.018 596.387 157.293C591.717 163.569 584.639 166.706 575.153 166.706C580.844 166.706 585.077 167.947 587.849 170.428C590.622 172.909 592.52 176.047 593.541 179.841C594.563 183.49 595.219 187.284 595.511 191.224C595.803 195.165 596.241 198.74 596.825 201.951C597.409 205.162 598.576 207.497 600.327 208.956C602.079 210.27 605.07 210.124 609.303 208.518V219.464C607.259 221.215 604.56 222.383 601.203 222.966C597.992 223.696 594.782 223.477 591.571 222.31C588.36 221.288 585.587 219.099 583.252 215.742C581.063 212.24 579.969 207.205 579.969 200.638C579.969 192.903 579.531 186.846 578.655 182.468C577.78 178.09 575.736 174.879 572.526 172.836C569.315 170.793 564.28 169.625 557.421 169.333C550.562 168.896 541.149 168.896 529.181 169.333V221.434H510.793ZM529.181 155.761H554.575C562.018 155.761 568.147 155.323 572.964 154.447C577.78 153.426 581.355 151.456 583.69 148.537C586.171 145.618 587.412 141.167 587.412 135.183C587.412 128.324 585.952 123.362 583.033 120.297C580.115 117.233 575.809 115.335 570.118 114.606C564.572 113.73 557.786 113.292 549.759 113.292H529.181V155.761Z" fill="white"/>
<path d="M397 221.434V98.1875H443.628C448.444 98.1875 453.625 98.5524 459.171 99.2821C464.716 99.8658 469.897 101.252 474.713 103.441C479.529 105.485 483.47 108.695 486.534 113.073C489.599 117.452 491.131 123.362 491.131 130.805C491.131 135.475 490.183 139.853 488.286 143.94C486.534 147.88 483.251 151.091 478.435 153.572C473.619 156.053 466.759 157.439 457.857 157.731V158.607C468.219 158.753 476.173 160.212 481.718 162.985C487.41 165.758 491.35 169.406 493.539 173.931C495.729 178.309 496.823 183.198 496.823 188.598C496.823 196.332 495.145 202.389 491.788 206.767C488.432 211.145 484.126 214.429 478.872 216.618C473.619 218.661 468 219.975 462.016 220.558C456.179 221.142 450.633 221.434 445.379 221.434H397ZM414.951 150.726H441.439C447.422 150.726 452.749 150.434 457.419 149.85C462.235 149.121 466.03 147.442 468.803 144.815C471.575 142.188 472.962 138.102 472.962 132.556C472.962 126.573 471.503 122.268 468.584 119.641C465.665 116.868 461.797 115.117 456.981 114.387C452.165 113.657 447.058 113.292 441.658 113.292H414.951V150.726ZM414.951 206.548H443.847C450.122 206.548 455.814 206.183 460.922 205.454C466.03 204.578 470.116 202.754 473.181 199.981C476.392 197.062 477.997 192.538 477.997 186.408C477.997 180.133 476.319 175.463 472.962 172.398C469.751 169.333 465.373 167.363 459.827 166.488C454.427 165.466 448.517 164.955 442.096 164.955H414.951V206.548Z" fill="white"/>
</svg>
