<svg width="1399" height="379" viewBox="0 0 1399 379" fill="none" xmlns="http://www.w3.org/2000/svg">
<path d="M110.322 275.232L18.2436 319.882C18.1413 319.932 18.0553 320.001 17.9855 320.091C17.9306 320.161 17.8857 320.205 17.8508 320.222C11.9729 322.92 6.08244 325.634 0.179554 328.362C0.160178 328.371 0.138917 328.374 0.117714 328.373C0.0965114 328.371 0.0760473 328.364 0.0581865 328.353C0.0403256 328.341 0.0256385 328.325 0.0154742 328.307C0.00530978 328.288 -1.00757e-05 328.267 1.43263e-08 328.246V0.187037C1.43263e-08 0.0623456 0.0623456 0 0.187037 0H398.643C398.762 0 398.822 0.0611008 398.822 0.183298V372.121C398.822 372.268 398.756 372.309 398.624 372.244C380.955 363.324 363.255 354.375 345.524 345.397C344.35 344.802 343.134 343.95 341.967 343.355C331.69 338.125 321.39 332.941 311.068 327.801C299.278 321.928 287.584 315.857 275.846 309.89C273.457 308.676 271.145 307.331 268.91 305.858C268.304 305.457 268.589 305.124 268.533 304.612C267.547 295.512 266.635 286.406 265.794 277.293C265.784 277.176 265.698 277.08 265.536 277.005L238.895 264.702C238.828 264.671 238.774 264.617 238.743 264.55C238.712 264.483 238.706 264.407 238.726 264.335L241.341 255.144C241.384 255.002 241.478 254.932 241.625 254.935C250.232 254.952 258.835 254.949 267.436 254.924C270.554 254.914 272.693 254.706 273.856 254.299C276.457 253.394 278.061 251.542 278.67 248.744C278.904 247.674 278.919 245.947 278.715 243.563C278.039 235.593 277.7 227.609 277.697 219.611C277.697 219.563 277.708 219.516 277.728 219.473C277.748 219.429 277.777 219.391 277.813 219.361L280.514 217.064C280.618 216.975 280.701 216.864 280.756 216.739C280.812 216.614 280.839 216.478 280.836 216.342L280.372 195.79C280.371 195.761 280.376 195.731 280.387 195.703C280.397 195.676 280.413 195.651 280.434 195.629C280.454 195.608 280.479 195.591 280.506 195.579C280.534 195.568 280.563 195.562 280.593 195.562L298.421 195.51C298.461 195.509 298.5 195.499 298.536 195.48C298.571 195.461 298.601 195.435 298.624 195.402C298.646 195.369 298.66 195.331 298.664 195.292C298.669 195.253 298.664 195.213 298.649 195.177L281.561 150.576C281.545 150.532 281.54 150.484 281.547 150.438C281.553 150.391 281.572 150.347 281.6 150.309C281.629 150.271 281.666 150.242 281.709 150.222C281.752 150.203 281.799 150.194 281.846 150.198C282.22 150.23 282.66 150.218 283.166 150.161C305.876 147.55 330.292 142.369 351.981 132.8C359.298 129.57 366.086 125.469 372.345 120.497C372.358 120.489 372.456 120.423 372.641 120.298C372.903 120.124 372.943 119.911 372.761 119.659C372.721 119.603 372.67 119.556 372.611 119.521C372.553 119.486 372.488 119.462 372.42 119.453C366.342 118.649 360.173 117.306 354.375 116.445C347.108 115.363 339.846 114.243 332.589 113.086C324.558 111.807 316.459 110.864 308.386 109.877C301.182 108.99 293.012 107.636 286.772 107.037C273.343 105.751 261.853 104.706 252.301 103.903C234.398 102.399 215.758 102.526 197.967 103.181C191.395 103.42 184.658 103.933 177.883 104.714C167.21 105.944 159.378 106.959 154.388 107.759C150.211 108.43 144.133 109.65 136.155 111.418C133.607 111.984 131.183 112.567 128.883 113.169C118.322 115.932 107.87 119.059 97.5285 122.55C82.0867 127.761 67.1687 134.902 54.1098 144.19C49.0423 147.792 44.7567 151.828 41.2528 156.299C39.3326 158.751 37.8263 161.667 36.734 165.049C30.5356 184.224 57.3305 191.096 69.948 193.553C81.2426 195.753 92.6431 197.057 104.15 197.466C111.656 197.73 119.164 197.904 126.673 197.986C126.797 197.986 126.873 198.047 126.901 198.169C127.721 201.823 128.64 205.439 129.658 209.017C130.376 211.539 130.993 215.152 131.839 218.227C133.432 224.02 134.815 229.866 135.987 235.764C136.012 235.891 135.965 235.982 135.845 236.037C131.777 237.932 127.752 239.856 123.77 241.809C123.244 242.066 122.922 242.356 122.805 242.68C119.817 250.94 116.853 259.208 113.913 267.485C113.591 268.39 113.089 269.534 112.405 270.915C111.732 272.273 111.287 273.74 110.524 275.041C110.478 275.124 110.407 275.191 110.322 275.232ZM172.979 39.2628C156.019 44.8851 139.208 51.4314 123.265 59.5263C122.751 59.7857 122.477 60.2109 122.442 60.8019C121.671 73.8596 120.969 86.9322 120.336 100.02C120.334 100.052 120.341 100.084 120.354 100.113C120.368 100.142 120.388 100.167 120.413 100.187C120.438 100.207 120.468 100.22 120.499 100.226C120.531 100.232 120.563 100.231 120.594 100.222C122.288 99.7019 124.529 98.95 125.636 98.632C134.435 96.1232 143.321 93.9898 152.297 92.2316C158.143 91.0869 164.383 90.249 170.424 89.3251C183.031 87.3948 195.977 86.6804 209.313 86.4073C226.199 86.0581 242.561 86.5407 258.399 87.8549C265.734 88.4609 273.16 89.6542 280.387 90.6642C280.906 90.7366 281.086 90.5233 280.929 90.0246C278.45 82.1815 275.984 74.3783 273.53 66.615C272.869 64.5302 272.144 62.1461 271.353 59.4627C268.897 51.1134 266.297 42.8077 263.554 34.5457C263.419 34.1392 263.133 33.8699 262.697 33.7377C252.557 30.6878 242.39 27.7313 232.195 24.8684C230.878 24.4981 227.747 23.4507 226.487 23.7724C206.788 28.8024 188.952 33.9659 172.979 39.2628Z" fill="#0A0A0A"/>
<path d="M177.908 224.594C177.896 224.589 177.883 224.588 177.871 224.592C177.859 224.596 177.849 224.605 177.842 224.616C177.836 224.627 177.834 224.64 177.836 224.652C177.839 224.665 177.846 224.676 177.856 224.684C181.389 228.35 184.793 232.119 188.068 235.992C189.963 238.236 191.602 240.115 192.983 241.629C203.811 253.497 214.443 265.546 224.877 277.776C224.889 277.788 224.897 277.804 224.899 277.821C224.901 277.838 224.897 277.855 224.887 277.869C224.878 277.884 224.864 277.895 224.848 277.9C224.832 277.906 224.814 277.905 224.798 277.899C214.319 274.844 203.856 271.725 193.41 268.54C184.181 265.723 175.091 262.413 166.102 258.9C161.746 257.197 156.56 254.913 150.545 252.047C150.163 251.865 149.865 251.692 149.651 251.527C149.536 251.44 149.501 251.328 149.546 251.191C150.657 247.828 152.235 244.581 153.575 241.562C159.906 227.26 166.348 212.943 172.899 198.611C172.927 198.551 172.942 198.485 172.944 198.419C172.945 198.353 172.933 198.287 172.909 198.226C172.885 198.164 172.848 198.108 172.801 198.061C172.754 198.014 172.699 197.977 172.637 197.952L156.316 191.35C156.263 191.326 156.217 191.287 156.186 191.238C155.547 190.228 154.845 188.956 154.08 187.422C149.224 177.674 146 171.175 144.406 167.925C143.915 166.923 143.411 165.731 142.895 164.349C142.85 164.232 142.86 164.119 142.925 164.009C145.448 159.665 147.785 155.232 149.935 150.711C150.097 150.369 150.299 150.055 150.541 149.768C150.623 149.673 150.724 149.643 150.844 149.678C154.158 150.651 157.533 151.309 160.97 151.653C161.063 151.663 161.152 151.694 161.23 151.745C161.308 151.795 161.373 151.864 161.419 151.945C166.304 160.474 170.363 169.515 174.874 178.254C175.144 178.766 175.731 179.241 176.232 179.507C181.407 182.255 186.64 184.989 191.932 187.71C191.972 187.73 192.016 187.739 192.06 187.737C192.104 187.735 192.147 187.721 192.184 187.697C192.221 187.673 192.25 187.64 192.27 187.601C192.289 187.562 192.298 187.518 192.295 187.475L191.001 164.735C190.998 164.682 191.008 164.63 191.032 164.583C191.055 164.536 191.09 164.496 191.133 164.467C191.176 164.437 191.227 164.42 191.279 164.416C191.331 164.411 191.383 164.421 191.431 164.443L226.339 181.044C226.386 181.066 226.425 181.1 226.454 181.142C226.483 181.185 226.5 181.235 226.504 181.287C226.867 186.85 227.432 192.442 227.664 197.979C228.018 206.505 228.519 215.023 229.167 223.532C229.541 228.443 229.642 232.973 229.747 237.705C229.752 237.84 229.689 237.893 229.556 237.866C223.843 236.676 218.172 235.341 212.544 233.86C200.972 230.815 189.427 227.726 177.908 224.594Z" fill="#0A0A0A"/>
<path d="M169.573 295.054C169.106 294.912 169.059 294.999 169.43 295.316C191.43 314.116 214.2 331.93 236.973 349.96C237.302 350.22 237.558 350.16 237.74 349.781C238.918 347.353 240.258 344.82 241.35 342.479C247.046 330.306 252.522 318.118 257.779 305.913C258.011 305.372 258.053 305.387 257.906 305.958C257.53 307.414 257.181 309.023 256.859 310.783C255.629 317.522 254.451 324.269 253.324 331.025C250.41 348.524 245.895 362.978 241.383 378.734C241.344 378.879 241.268 378.901 241.155 378.801C229.312 368.232 217.58 357.498 205.959 346.597C203.951 344.714 202.147 342.992 200.546 341.431C178.024 319.478 157.266 295.958 138.27 270.87C135.208 266.827 132.285 262.749 129.502 258.634C129.252 258.265 129.314 258.202 129.685 258.447C130.595 259.048 131.644 259.645 132.831 260.239C139.539 263.58 146.233 266.951 152.911 270.35C167.713 277.876 183.107 284.4 198.937 289.428C203.91 291.006 208.884 292.582 213.859 294.156C215.024 294.525 216.013 294.814 216.826 295.024C217.439 295.181 218.087 295.196 218.771 295.069C227.745 293.385 236.835 291.784 245.644 289.386C245.683 289.376 245.725 289.377 245.763 289.39C245.802 289.403 245.836 289.426 245.861 289.458C245.887 289.49 245.902 289.528 245.906 289.569C245.91 289.609 245.902 289.65 245.884 289.686C241.874 297.171 236.805 305.199 232.518 313.121C232.494 313.166 232.456 313.201 232.409 313.221C232.362 313.241 232.309 313.244 232.26 313.23C222.725 310.454 213.298 307.645 203.812 305.023C192.253 301.826 180.84 298.503 169.573 295.054Z" fill="#0A0A0A"/>
<path d="M1324.32 277.054C1300 277.054 1281.45 269.94 1268.67 255.712C1255.88 241.304 1249.48 221.943 1249.48 197.628C1249.48 181.599 1252.19 167.731 1257.59 156.024C1263.17 144.138 1271.46 134.952 1282.44 128.468C1293.61 121.805 1307.57 118.473 1324.32 118.473C1348.63 118.473 1367.09 125.677 1379.7 140.085C1392.49 154.313 1398.88 173.494 1398.88 197.628C1398.88 213.298 1396 227.166 1390.24 239.233C1384.65 251.119 1376.28 260.395 1365.11 267.059C1354.12 273.722 1340.53 277.054 1324.32 277.054ZM1324.05 255.442C1341.52 255.442 1354.67 250.039 1363.49 239.233C1372.32 228.426 1376.73 214.558 1376.73 197.628C1376.73 180.699 1372.32 166.831 1363.49 156.024C1354.85 145.038 1341.7 139.545 1324.05 139.545C1306.76 139.545 1293.61 144.768 1284.6 155.214C1275.78 165.66 1271.37 179.798 1271.37 197.628C1271.37 208.795 1273.26 218.791 1277.04 227.616C1280.82 236.261 1286.59 243.105 1294.33 248.148C1302.25 253.01 1312.16 255.442 1324.05 255.442Z" fill="#0A0A0A"/>
<path d="M1171.5 275.974C1157.45 275.974 1144.67 273.092 1133.14 267.329C1121.79 261.385 1112.79 252.65 1106.12 241.124C1099.64 229.417 1096.4 214.918 1096.4 197.628C1096.58 180.519 1099.91 166.11 1106.39 154.403C1112.88 142.517 1121.79 133.601 1133.14 127.658C1144.67 121.534 1157.81 118.473 1172.58 118.473C1192.21 118.473 1208.06 123.696 1220.13 134.142C1232.2 144.588 1239.67 158.276 1242.55 175.205H1219.32C1217.88 166.56 1214.73 159.626 1209.86 154.403C1205.18 149.18 1199.51 145.398 1192.84 143.057C1186.36 140.716 1179.61 139.545 1172.58 139.545C1155.47 139.545 1142.23 144.498 1132.87 154.403C1123.5 164.129 1118.82 178.087 1118.82 196.278C1118.82 215.369 1123.41 229.957 1132.6 240.043C1141.78 249.949 1154.84 254.902 1171.77 254.902C1183.48 254.902 1193.92 252.11 1203.11 246.527C1212.3 240.763 1217.97 231.488 1220.13 218.701H1243.63C1240.57 235.63 1233.01 249.408 1220.94 260.035C1208.87 270.661 1192.39 275.974 1171.5 275.974Z" fill="#0A0A0A"/>
<path d="M1059.99 121.172H1082.95V273.27H1040.54L976.511 131.168H975.971V273.27H953.008V121.172H992.721L1059.45 263.274H1059.99V121.172Z" fill="#0A0A0A"/>
<path d="M862.138 277.054C837.824 277.054 819.273 269.94 806.486 255.712C793.698 241.304 787.305 221.943 787.305 197.628C787.305 181.599 790.006 167.731 795.409 156.024C800.993 144.138 809.277 134.952 820.264 128.468C831.43 121.805 845.388 118.473 862.138 118.473C886.452 118.473 904.913 125.677 917.52 140.085C930.307 154.313 936.701 173.494 936.701 197.628C936.701 213.298 933.819 227.166 928.056 239.233C922.473 251.119 914.098 260.395 902.932 267.059C891.945 273.722 878.347 277.054 862.138 277.054ZM861.868 255.442C879.338 255.442 892.486 250.039 901.311 239.233C910.136 228.426 914.548 214.558 914.548 197.628C914.548 180.699 910.136 166.831 901.311 156.024C892.666 145.038 879.518 139.545 861.868 139.545C844.578 139.545 831.43 144.768 822.425 155.214C813.6 165.66 809.187 179.798 809.187 197.628C809.187 208.795 811.078 218.791 814.861 227.616C818.643 236.261 824.406 243.105 832.151 248.148C840.075 253.01 849.981 255.442 861.868 255.442Z" fill="#0A0A0A"/>
<path d="M659.25 273.27V121.172H712.471C731.922 121.172 746.961 124.414 757.587 130.898C768.393 137.201 773.796 148.638 773.796 165.207C773.796 176.734 770.825 186.37 764.881 194.114C759.118 201.859 750.383 205.731 738.676 205.731C745.7 205.731 750.923 207.262 754.345 210.323C757.767 213.385 760.108 217.257 761.369 221.94C762.63 226.443 763.44 231.125 763.8 235.988C764.161 240.851 764.701 245.264 765.421 249.226C766.142 253.188 767.583 256.07 769.744 257.871C771.905 259.492 775.597 259.312 780.82 257.331V270.838C778.299 273 774.967 274.441 770.825 275.161C766.862 276.061 762.9 275.791 758.938 274.35C754.975 273.09 751.553 270.388 748.672 266.246C745.97 261.923 744.619 255.71 744.619 247.605C744.619 238.06 744.079 230.585 742.998 225.182C741.918 219.779 739.396 215.817 735.434 213.295C731.472 210.774 725.258 209.333 716.793 208.973C708.328 208.432 696.712 208.432 681.943 208.973V273.27H659.25ZM681.943 192.223H713.281C722.467 192.223 730.031 191.683 735.974 190.602C741.918 189.341 746.33 186.91 749.212 183.308C752.274 179.706 753.805 174.213 753.805 166.828C753.805 158.363 752.004 152.24 748.402 148.458C744.799 144.675 739.486 142.334 732.462 141.434C725.618 140.353 717.244 139.813 707.338 139.813H681.943V192.223Z" fill="#0A0A0A"/>
<path d="M518.82 273.27V121.172H576.364C582.307 121.172 588.701 121.622 595.545 122.523C602.389 123.243 608.782 124.954 614.726 127.656C620.669 130.177 625.532 134.139 629.314 139.543C633.096 144.946 634.988 152.24 634.988 161.425C634.988 167.188 633.817 172.592 631.475 177.635C629.314 182.497 625.262 186.46 619.318 189.521C613.375 192.583 604.91 194.294 593.924 194.654V195.735C606.711 195.915 616.527 197.716 623.371 201.138C630.395 204.56 635.258 209.063 637.959 214.646C640.661 220.049 642.012 226.083 642.012 232.746C642.012 242.292 639.94 249.766 635.798 255.169C631.656 260.573 626.343 264.625 619.859 267.326C613.375 269.848 606.441 271.469 599.057 272.189C591.853 272.91 585.009 273.27 578.525 273.27H518.82ZM540.973 186.009H573.662C581.046 186.009 587.62 185.649 593.383 184.929C599.327 184.028 604.01 181.957 607.432 178.715C610.854 175.473 612.565 170.43 612.565 163.586C612.565 156.202 610.764 150.889 607.161 147.647C603.559 144.225 598.787 142.064 592.843 141.163C586.9 140.263 580.596 139.813 573.932 139.813H540.973V186.009ZM540.973 254.899H576.634C584.378 254.899 591.402 254.449 597.706 253.548C604.01 252.468 609.053 250.217 612.835 246.795C616.797 243.192 618.778 237.609 618.778 230.045C618.778 222.3 616.707 216.537 612.565 212.755C608.602 208.973 603.199 206.541 596.355 205.461C589.691 204.2 582.397 203.57 574.473 203.57H540.973V254.899Z" fill="#0A0A0A"/>
</svg>
